<svg width="14.000000" height="16.000000" viewBox="0 0 14 16" fill="none" xmlns="http://www.w3.org/2000/svg" xmlns:xlink="http://www.w3.org/1999/xlink">
	<desc>
			Created with Pixso.
	</desc>
	<defs/>
	<path id="Mask" d="M0 1.75L0 2.625C0 2.8313 0.168762 3 0.375 3L13.625 3C13.8312 3 14 2.8313 14 2.625L14 1.75C14 1.33447 13.6656 1 13.25 1L9.75 1L9.45624 0.415527C9.32812 0.159424 9.06873 0 8.78436 0L5.21252 0C4.9281 0 4.66876 0.159424 4.54376 0.415527L4.25 1L0.75 1C0.334351 1 0 1.33447 0 1.75ZM13 4.375L13 14.5C13 15.3281 12.3281 16 11.5 16L2.5 16C1.67188 16 1 15.3281 1 14.5L1 4.375C1 4.1687 1.16876 4 1.375 4L12.625 4C12.8312 4 13 4.1687 13 4.375ZM4 6C4.27502 6 4.5 6.2251 4.5 6.5L4.5 13.5C4.5 13.7749 4.27502 14 4 14C3.72498 14 3.5 13.7749 3.5 13.5L3.5 6.5C3.5 6.2251 3.72498 6 4 6ZM7.5 6.5C7.5 6.2251 7.27502 6 7 6C6.72498 6 6.5 6.2251 6.5 6.5L6.5 13.5C6.5 13.7749 6.72498 14 7 14C7.27502 14 7.5 13.7749 7.5 13.5L7.5 6.5ZM10 6C10.275 6 10.5 6.2251 10.5 6.5L10.5 13.5C10.5 13.7749 10.275 14 10 14C9.72498 14 9.5 13.7749 9.5 13.5L9.5 6.5C9.5 6.2251 9.72498 6 10 6Z" clip-rule="evenodd" fill="#C3CAD9" fill-opacity="1.000000" fill-rule="evenodd"/>
	<mask id="mask0_635" mask-type="alpha" maskUnits="userSpaceOnUse" x="0.000000" y="0.000000" width="14.000000" height="16.000000">
		<path id="Mask" d="M0 1.75L0 2.625C0 2.8313 0.168762 3 0.375 3L13.625 3C13.8312 3 14 2.8313 14 2.625L14 1.75C14 1.33447 13.6656 1 13.25 1L9.75 1L9.45624 0.415527C9.32812 0.159424 9.06873 0 8.78436 0L5.21252 0C4.9281 0 4.66876 0.159424 4.54376 0.415527L4.25 1L0.75 1C0.334351 1 0 1.33447 0 1.75ZM13 4.375L13 14.5C13 15.3281 12.3281 16 11.5 16L2.5 16C1.67188 16 1 15.3281 1 14.5L1 4.375C1 4.1687 1.16876 4 1.375 4L12.625 4C12.8312 4 13 4.1687 13 4.375ZM4 6C4.27502 6 4.5 6.2251 4.5 6.5L4.5 13.5C4.5 13.7749 4.27502 14 4 14C3.72498 14 3.5 13.7749 3.5 13.5L3.5 6.5C3.5 6.2251 3.72498 6 4 6ZM7.5 6.5C7.5 6.2251 7.27502 6 7 6C6.72498 6 6.5 6.2251 6.5 6.5L6.5 13.5C6.5 13.7749 6.72498 14 7 14C7.27502 14 7.5 13.7749 7.5 13.5L7.5 6.5ZM10 6C10.275 6 10.5 6.2251 10.5 6.5L10.5 13.5C10.5 13.7749 10.275 14 10 14C9.72498 14 9.5 13.7749 9.5 13.5L9.5 6.5C9.5 6.2251 9.72498 6 10 6Z" clip-rule="evenodd" fill="#C3CAD9" fill-opacity="1.000000" fill-rule="evenodd"/>
	</mask>
</svg>
