<svg width="18.000000" height="16.000000" viewBox="0 0 18 16" fill="none" xmlns="http://www.w3.org/2000/svg" xmlns:xlink="http://www.w3.org/1999/xlink">
	<desc>
			Created with Pixso.
	</desc>
	<defs/>
	<path id="Shape" d="M16.7397 2.91309L3.09052 2.91309L2.8876 0.652832C2.85443 0.283203 2.54465 0 2.17355 0L0.716919 0C0.320984 0 0 0.320984 0 0.716919C0 1.11285 0.320984 1.43384 0.716919 1.43384L1.5181 1.43384C1.59955 2.34106 1.62668 2.64343 1.62668 2.64343L1.60596 2.41254C1.59277 2.26556 1.57523 2.07013 1.5593 1.89258C1.63953 2.78619 1.85364 5.17188 2.34268 10.6204C2.40118 11.2825 2.75894 12.001 3.37521 12.4891C2.2641 13.9081 3.27933 16 5.08676 16C6.58691 16 7.64499 14.5038 7.13055 13.0867L11.0544 13.0867C10.5406 14.502 11.5964 16 13.0982 16C14.2967 16 15.2717 15.025 15.2717 13.8265C15.2717 12.6279 14.2967 11.6529 13.0982 11.6529L5.09161 11.6529C4.54703 11.6529 4.07245 11.3243 3.86761 10.8456L15.3251 10.1722C15.6378 10.1539 15.9025 9.93445 15.9785 9.63049L17.4352 3.80389C17.5482 3.35211 17.2062 2.91309 16.7397 2.91309ZM1.55591 1.85474C1.55701 1.867 1.55814 1.87964 1.5593 1.89258L1.55591 1.85474ZM1.55591 1.85474L1.55591 1.85474C1.52856 1.55011 1.51813 1.43384 1.51813 1.43384L1.55591 1.85474ZM3.67462 9.42065L14.7152 8.77179L15.8215 4.34692L3.21921 4.34692L3.67462 9.42065ZM4.34711 13.8265C4.34711 14.2343 4.67892 14.5662 5.08676 14.5662C5.49463 14.5662 5.82648 14.2343 5.82648 13.8265C5.82648 13.4186 5.49463 13.0867 5.08676 13.0867C4.67892 13.0867 4.34711 13.4186 4.34711 13.8265ZM13.0981 14.5662C12.6903 14.5662 12.3585 14.2343 12.3585 13.8265C12.3585 13.4186 12.6903 13.0867 13.0981 13.0867C13.506 13.0867 13.8379 13.4186 13.8379 13.8265C13.8379 14.2343 13.506 14.5662 13.0981 14.5662Z" clip-rule="evenodd" fill="#FFFFFF" fill-opacity="1.000000" fill-rule="evenodd"/>
</svg>
